<svg width="16" height="16" viewBox="0 0 16 16" fill="none" xmlns="http://www.w3.org/2000/svg">
<path d="M4.75 2.25V1.25H5.25V2.25V2.75H5.75H10.25H10.75V2.25V1.25H11.25V2.25V2.75H11.75H14.75C14.8163 2.75 14.8799 2.77634 14.9268 2.82322C14.9737 2.87011 15 2.93369 15 3V15C15 15.0663 14.9737 15.1299 14.9268 15.1768C14.8799 15.2237 14.8163 15.25 14.75 15.25H1.25C1.18369 15.25 1.12011 15.2237 1.07322 15.1768C1.02634 15.1299 1 15.0663 1 15V3C1 2.9337 1.02634 2.87011 1.07322 2.82322C1.12011 2.77634 1.1837 2.75 1.25 2.75H4.25H4.75V2.25ZM14.5 6V5.5H14H2H1.5V6V14.25V14.75H2H14H14.5V14.25V6ZM7.97935 10.6075L10.2771 8.30916L10.6304 8.6625L7.625 11.6679L5.68036 9.72325L6.03467 9.36944L7.27211 10.6075L7.62572 10.9612L7.97935 10.6075Z" fill="#363A3F" stroke="#363A3F"/>
</svg>
