<svg width="14" height="14" viewBox="0 0 14 14" fill="none" xmlns="http://www.w3.org/2000/svg">
<path d="M5.5 0.25V1.75H1.75V12.25H12.25V8.5H13.75V13C13.75 13.1989 13.671 13.3897 13.5303 13.5303C13.3897 13.671 13.1989 13.75 13 13.75H1C0.801088 13.75 0.610322 13.671 0.46967 13.5303C0.329018 13.3897 0.25 13.1989 0.25 13V1C0.25 0.801088 0.329018 0.610322 0.46967 0.46967C0.610322 0.329018 0.801088 0.25 1 0.25H5.5ZM11.2803 3.78025L7 8.0605L5.9395 7L10.2197 2.71975L7.75 0.25H13.75V6.25L11.2803 3.78025Z" fill="#363A3F"/>
</svg>
