<svg width="16" height="16" viewBox="0 0 16 16" fill="none" xmlns="http://www.w3.org/2000/svg">
<path d="M2.72377 2.82194L5.38327 12.1294L7.66327 7.56944L11.891 5.87819L2.72377 2.82194ZM1.17427 0.724944L15.2788 5.42594C15.3518 5.45014 15.4156 5.4962 15.4615 5.55787C15.5075 5.61954 15.5333 5.69385 15.5356 5.77072C15.5379 5.84759 15.5165 5.92331 15.4743 5.98761C15.4321 6.05192 15.3712 6.10169 15.2998 6.13019L8.75002 8.74994L5.43127 15.3874C5.39749 15.455 5.34409 15.5108 5.27806 15.5476C5.21203 15.5843 5.13644 15.6002 5.06121 15.5932C4.98597 15.5863 4.9146 15.5567 4.85644 15.5085C4.79828 15.4603 4.75604 15.3956 4.73527 15.3229L0.695015 1.18319C0.6763 1.11751 0.675882 1.04795 0.693805 0.982043C0.711728 0.916133 0.747312 0.85637 0.796715 0.809205C0.846119 0.76204 0.907467 0.729264 0.974136 0.714414C1.04081 0.699564 1.11026 0.703205 1.17502 0.724944H1.17427Z" fill="#363A3F"/>
</svg>
