<svg width="16" height="15" viewBox="0 0 16 15" fill="none" xmlns="http://www.w3.org/2000/svg">
<path d="M4.25 7.25C3.80679 7.25 3.36792 7.1627 2.95844 6.99309C2.54897 6.82348 2.17691 6.57488 1.86351 6.26149C1.55012 5.94809 1.30152 5.57603 1.13191 5.16656C0.962297 4.75708 0.875 4.31821 0.875 3.875C0.875 3.43179 0.962297 2.99292 1.13191 2.58344C1.30152 2.17397 1.55012 1.80191 1.86351 1.48851C2.17691 1.17512 2.54897 0.926516 2.95844 0.756907C3.36792 0.587297 3.80679 0.5 4.25 0.5C5.14511 0.5 6.00355 0.855579 6.63649 1.48851C7.26942 2.12145 7.625 2.97989 7.625 3.875C7.625 4.77011 7.26942 5.62855 6.63649 6.26149C6.00355 6.89442 5.14511 7.25 4.25 7.25V7.25ZM12.125 10.25C11.3294 10.25 10.5663 9.93393 10.0037 9.37132C9.44107 8.80871 9.125 8.04565 9.125 7.25C9.125 6.45435 9.44107 5.69129 10.0037 5.12868C10.5663 4.56607 11.3294 4.25 12.125 4.25C12.9206 4.25 13.6837 4.56607 14.2463 5.12868C14.8089 5.69129 15.125 6.45435 15.125 7.25C15.125 8.04565 14.8089 8.80871 14.2463 9.37132C13.6837 9.93393 12.9206 10.25 12.125 10.25ZM12.125 11C13.0201 11 13.8785 11.3556 14.5115 11.9885C15.1444 12.6215 15.5 13.4799 15.5 14.375V14.75H8.75V14.375C8.75 13.4799 9.10558 12.6215 9.73851 11.9885C10.3715 11.3556 11.2299 11 12.125 11V11ZM4.25 8C4.74246 8 5.23009 8.097 5.68506 8.28545C6.14003 8.47391 6.55343 8.75013 6.90165 9.09835C7.24987 9.44657 7.52609 9.85997 7.71455 10.3149C7.903 10.7699 8 11.2575 8 11.75V14.75H0.5V11.75C0.5 10.7554 0.895088 9.80161 1.59835 9.09835C2.30161 8.39509 3.25544 8 4.25 8V8Z" fill="#363A3F"/>
</svg>
