<svg width="14" height="16" viewBox="0 0 14 16" fill="none" xmlns="http://www.w3.org/2000/svg">
<path d="M13.75 4.25V14.7448C13.7507 14.8432 13.732 14.9409 13.6949 15.0322C13.6579 15.1234 13.6032 15.2065 13.534 15.2766C13.4649 15.3468 13.3826 15.4026 13.2919 15.4409C13.2011 15.4792 13.1037 15.4993 13.0052 15.5H0.99475C0.79736 15.5 0.608043 15.4216 0.468397 15.2821C0.328751 15.1426 0.250199 14.9534 0.25 14.756V1.244C0.25 0.84125 0.58525 0.5 0.9985 0.5H9.99775L13.75 4.25ZM4 5V9.2C4 9.8375 4.3345 10.4322 4.89025 10.7855L7 12.125L9.10975 10.7855C9.37996 10.6179 9.60333 10.3846 9.759 10.1074C9.91467 9.83012 9.99758 9.51795 10 9.2V5H4ZM5.5 6.5H8.5V9.2C8.5 9.3185 8.4325 9.4385 8.305 9.5195L7 10.3475L5.695 9.51875C5.5675 9.43775 5.5 9.31775 5.5 9.19925V6.5Z" fill="#363A3F"/>
</svg>
