<svg width="16" height="15" viewBox="0 0 16 15" fill="none" xmlns="http://www.w3.org/2000/svg">
<path d="M12.0926 0.25L14.7498 0.25225L14.7513 2.8945L10.6511 6.994L12.7721 9.11575L13.8333 8.05525L14.8938 9.11575L13.0383 10.972L15.1593 13.0938L14.0988 14.1542L11.9771 12.0325L10.1208 13.8887L9.06033 12.8282L10.1208 11.767L7.99908 9.646L5.87808 11.767L6.93933 12.8282L5.87883 13.8887L4.02258 12.0325L1.90083 14.1542L0.840332 13.0938L2.96208 10.9713L1.10583 9.11575L2.16633 8.05525L3.22683 9.115L5.34708 6.994L1.25208 2.899L1.24983 0.25L3.90933 0.25225L7.99908 4.34275L12.0926 0.25ZM6.40758 8.0545L4.28733 10.1755L4.81833 10.7057L6.93858 8.58475L6.40833 8.0545H6.40758ZM13.2506 1.75075H12.7128L9.06033 5.4025L9.58983 5.93275L13.2506 2.2735V1.75075V1.75075ZM2.75058 1.75075V2.27575L11.1813 10.7065L11.7116 10.1763L3.28683 1.7515L2.75058 1.75075V1.75075Z" fill="#363A3F"/>
</svg>
