<svg width="14" height="15" viewBox="0 0 14 15" fill="none" xmlns="http://www.w3.org/2000/svg">
<path d="M12.2566 3.20797C12.1475 3.15564 12.0414 3.09828 11.9386 3.0361C11.6395 2.8525 11.3653 2.63617 11.1219 2.39176C10.5128 1.7446 10.2853 1.08807 10.2015 0.628406H10.2049C10.1349 0.246863 10.1638 0 10.1682 0H7.39407V9.96138C7.39407 10.0951 7.39407 10.2273 7.38801 10.3579C7.38801 10.3742 7.38633 10.3892 7.38532 10.4067C7.38532 10.4139 7.38532 10.4214 7.38363 10.4289V10.4345C7.35439 10.7919 7.23101 11.1372 7.02435 11.4399C6.81769 11.7426 6.53408 11.9936 6.19846 12.1706C5.84868 12.3554 5.45307 12.4524 5.05064 12.4519C3.75813 12.4519 2.71059 11.4732 2.71059 10.2645C2.71059 9.0558 3.75813 8.0771 5.05064 8.0771C5.29531 8.07689 5.53847 8.11264 5.7711 8.18303L5.77447 5.56003C5.06826 5.47532 4.35082 5.52744 3.6674 5.7131C2.98397 5.89876 2.3494 6.21393 1.80371 6.63873C1.32555 7.02452 0.923569 7.48484 0.615842 7.99898C0.498738 8.18647 0.056907 8.93987 0.0034027 10.1626C-0.0302478 10.8566 0.194201 11.5757 0.30121 11.8728V11.8791C0.368511 12.0541 0.629302 12.6512 1.05431 13.1547C1.39702 13.5585 1.80192 13.9132 2.25597 14.2074V14.2012L2.2627 14.2074C3.60569 15.0549 5.09473 14.9993 5.09473 14.9993C5.35249 14.9896 6.21596 14.9993 7.19654 14.5677C8.28412 14.0893 8.90329 13.3765 8.90329 13.3765C9.29885 12.9506 9.61338 12.4653 9.83339 11.9413C10.0844 11.3285 10.1682 10.5935 10.1682 10.2998V5.01506C10.2019 5.03381 10.6501 5.30911 10.6501 5.30911C10.6501 5.30911 11.2958 5.69347 12.3033 5.94377C13.0262 6.12188 14 6.15938 14 6.15938V3.60201C13.6588 3.63638 12.9659 3.53639 12.2566 3.20797Z" fill="#363A3F"/>
</svg>
