<svg width="15" height="14" viewBox="0 0 15 14" fill="none" xmlns="http://www.w3.org/2000/svg">
<path d="M3.20508 1.74999C3.20488 2.14781 3.04665 2.52926 2.76521 2.81043C2.48376 3.09159 2.10215 3.24944 1.70433 3.24924C1.3065 3.24904 0.925052 3.09081 0.643888 2.80937C0.362724 2.52792 0.204879 2.14631 0.205078 1.74849C0.205277 1.35066 0.363503 0.969211 0.644948 0.688047C0.926394 0.406883 1.308 0.249038 1.70583 0.249237C2.10365 0.249436 2.4851 0.407662 2.76627 0.689107C3.04743 0.970553 3.20528 1.35216 3.20508 1.74999V1.74999ZM3.25008 4.35999H0.250078V13.75H3.25008V4.35999ZM7.99008 4.35999H5.00508V13.75H7.96008V8.82249C7.96008 6.07749 11.5376 5.82249 11.5376 8.82249V13.75H14.5001V7.80249C14.5001 3.17499 9.20508 3.34749 7.96008 5.61999L7.99008 4.35999V4.35999Z" fill="#363A3F"/>
</svg>
